# xmcd
#
# Track frame offsets: 
#        150
#        35418
#        77114
#        121721
#        166096
#        184945
#        216230
#        268069
#
# Disc length: 3862 seconds
#
# Revision: 1
# Processed by: cddbd v1.5.2PL0 Copyright (c) Steve Scherf et al.
# Submitted via: ExactAudioCopy v1.0b3
#
DISCID=670f1408
DTITLE=Bubba Mac Blues Band - Live At The Bubba Mac Shack
DYEAR=2003
DGENRE=Blues
TTITLE0=Ocean City
TTITLE1=Kerry Anne
TTITLE2=King Bee
TTITLE3=You Ain't Woman Enough
TTITLE4=Two Timin' Man
TTITLE5=Where Have You Been Baby
TTITLE6=Been Here Before
TTITLE7=High Blood Preesure
EXTD=
EXTT0=
EXTT1=
EXTT2=
EXTT3=
EXTT4=
EXTT5=
EXTT6=
EXTT7=
PLAYORDER=
